<mxfile host="app.diagrams.net" agent="Mozilla/5.0 (Windows NT 10.0; Win64; x64) AppleWebKit/537.36 (KHTML, like Gecko) Chrome/128.0.0.0 Safari/537.36" version="24.7.8">
  <diagram name="Page-1" id="vT2rW0v21EV5bmpTwlZ1">
    <mxGraphModel dx="1032" dy="501" grid="1" gridSize="10" guides="1" tooltips="1" connect="1" arrows="1" fold="1" page="1" pageScale="1" pageWidth="827" pageHeight="1169" math="0" shadow="0">
      <root>
        <mxCell id="0" />
        <mxCell id="1" parent="0" />
        <mxCell id="x97kpMAY2D_KdvPp3oIe-2" value="&lt;font style=&quot;font-size: 13px;&quot;&gt;Record identified through --- Scopus Database&lt;/font&gt;&lt;div&gt;&lt;font style=&quot;font-size: 13px;&quot;&gt;Search string 1: ----- = 137&lt;/font&gt;&lt;/div&gt;&lt;div&gt;&lt;font style=&quot;font-size: 13px;&quot;&gt;Search string 1: ----- = 137&lt;br&gt;&lt;/font&gt;&lt;/div&gt;&lt;div&gt;&lt;font style=&quot;font-size: 13px;&quot;&gt;Search string 1: ----- = 21&lt;br&gt;&lt;/font&gt;&lt;/div&gt;&lt;div&gt;&lt;font style=&quot;font-size: 13px;&quot;&gt;Total =&amp;nbsp;&lt;/font&gt;&lt;/div&gt;" style="rounded=0;whiteSpace=wrap;html=1;" vertex="1" parent="1">
          <mxGeometry x="234" y="60" width="346" height="100" as="geometry" />
        </mxCell>
        <mxCell id="x97kpMAY2D_KdvPp3oIe-5" style="edgeStyle=orthogonalEdgeStyle;rounded=0;orthogonalLoop=1;jettySize=auto;html=1;exitX=0.5;exitY=1;exitDx=0;exitDy=0;entryX=0.5;entryY=0;entryDx=0;entryDy=0;" edge="1" parent="1" source="x97kpMAY2D_KdvPp3oIe-6" target="x97kpMAY2D_KdvPp3oIe-8">
          <mxGeometry relative="1" as="geometry" />
        </mxCell>
        <mxCell id="x97kpMAY2D_KdvPp3oIe-6" value="&lt;div&gt;&lt;font style=&quot;font-size: 13px;&quot;&gt;Total record identified&lt;/font&gt;&lt;/div&gt;&lt;div&gt;&lt;font style=&quot;font-size: 13px;&quot;&gt;n = 300&lt;/font&gt;&lt;/div&gt;" style="rounded=0;whiteSpace=wrap;html=1;" vertex="1" parent="1">
          <mxGeometry x="310" y="190" width="200" height="70" as="geometry" />
        </mxCell>
        <mxCell id="x97kpMAY2D_KdvPp3oIe-7" style="edgeStyle=orthogonalEdgeStyle;rounded=0;orthogonalLoop=1;jettySize=auto;html=1;exitX=0.5;exitY=1;exitDx=0;exitDy=0;entryX=0.5;entryY=0;entryDx=0;entryDy=0;" edge="1" parent="1" source="x97kpMAY2D_KdvPp3oIe-8" target="x97kpMAY2D_KdvPp3oIe-12">
          <mxGeometry relative="1" as="geometry" />
        </mxCell>
        <mxCell id="x97kpMAY2D_KdvPp3oIe-8" value="&lt;div&gt;Total record identified&lt;/div&gt;&lt;div&gt;n = 300&lt;/div&gt;" style="rounded=0;whiteSpace=wrap;html=1;" vertex="1" parent="1">
          <mxGeometry x="310" y="300" width="200" height="50" as="geometry" />
        </mxCell>
        <mxCell id="x97kpMAY2D_KdvPp3oIe-9" value="" style="endArrow=classic;html=1;rounded=0;" edge="1" parent="1">
          <mxGeometry width="50" height="50" relative="1" as="geometry">
            <mxPoint x="410" y="280" as="sourcePoint" />
            <mxPoint x="590" y="280" as="targetPoint" />
          </mxGeometry>
        </mxCell>
        <mxCell id="x97kpMAY2D_KdvPp3oIe-10" value="&lt;div&gt;&lt;font style=&quot;font-size: 13px;&quot;&gt;Duplicated removed&lt;/font&gt;:&lt;/div&gt;&lt;div&gt;&lt;font style=&quot;font-size: 13px;&quot;&gt;n = 300&lt;/font&gt;&lt;/div&gt;" style="rounded=0;whiteSpace=wrap;html=1;" vertex="1" parent="1">
          <mxGeometry x="590" y="240" width="170" height="70" as="geometry" />
        </mxCell>
        <mxCell id="x97kpMAY2D_KdvPp3oIe-11" style="edgeStyle=orthogonalEdgeStyle;rounded=0;orthogonalLoop=1;jettySize=auto;html=1;exitX=0.5;exitY=1;exitDx=0;exitDy=0;entryX=0.5;entryY=0;entryDx=0;entryDy=0;" edge="1" parent="1" source="x97kpMAY2D_KdvPp3oIe-12" target="x97kpMAY2D_KdvPp3oIe-16">
          <mxGeometry relative="1" as="geometry" />
        </mxCell>
        <mxCell id="x97kpMAY2D_KdvPp3oIe-12" value="&lt;div&gt;Total record screened&lt;/div&gt;&lt;div&gt;n = 300&lt;/div&gt;" style="rounded=0;whiteSpace=wrap;html=1;" vertex="1" parent="1">
          <mxGeometry x="310" y="430" width="200" height="50" as="geometry" />
        </mxCell>
        <mxCell id="x97kpMAY2D_KdvPp3oIe-13" value="" style="endArrow=classic;html=1;rounded=0;" edge="1" parent="1">
          <mxGeometry width="50" height="50" relative="1" as="geometry">
            <mxPoint x="410" y="390" as="sourcePoint" />
            <mxPoint x="590" y="390" as="targetPoint" />
          </mxGeometry>
        </mxCell>
        <mxCell id="x97kpMAY2D_KdvPp3oIe-14" value="&lt;div style=&quot;text-align: center;&quot;&gt;Recorded excluded&lt;/div&gt;&lt;div style=&quot;text-align: center;&quot;&gt;n = 300&lt;/div&gt;&lt;div&gt;&lt;span style=&quot;background-color: initial;&quot;&gt;&lt;br&gt;&lt;/span&gt;&lt;/div&gt;&lt;div&gt;&lt;span style=&quot;background-color: initial;&quot;&gt;Reasons:&amp;nbsp;&lt;/span&gt;&lt;/div&gt;&lt;div&gt;&lt;ul&gt;&lt;li style=&quot;&quot;&gt;Book chapter&lt;/li&gt;&lt;li style=&quot;&quot;&gt;Language&amp;nbsp;&lt;/li&gt;&lt;li style=&quot;&quot;&gt;No peer review&lt;/li&gt;&lt;li style=&quot;&quot;&gt;conference proceedings&lt;/li&gt;&lt;/ul&gt;&lt;/div&gt;" style="rounded=0;whiteSpace=wrap;html=1;align=left;" vertex="1" parent="1">
          <mxGeometry x="590" y="340" width="180" height="150" as="geometry" />
        </mxCell>
        <mxCell id="x97kpMAY2D_KdvPp3oIe-15" style="edgeStyle=orthogonalEdgeStyle;rounded=0;orthogonalLoop=1;jettySize=auto;html=1;exitX=0.5;exitY=1;exitDx=0;exitDy=0;" edge="1" parent="1" source="x97kpMAY2D_KdvPp3oIe-16" target="x97kpMAY2D_KdvPp3oIe-19">
          <mxGeometry relative="1" as="geometry" />
        </mxCell>
        <mxCell id="x97kpMAY2D_KdvPp3oIe-16" value="&lt;div&gt;Full text article accessed for eligibility&lt;/div&gt;&lt;div&gt;n = 300&lt;/div&gt;" style="rounded=0;whiteSpace=wrap;html=1;" vertex="1" parent="1">
          <mxGeometry x="300" y="540" width="220" height="50" as="geometry" />
        </mxCell>
        <mxCell id="x97kpMAY2D_KdvPp3oIe-17" value="&lt;div style=&quot;text-align: center;&quot;&gt;Full text article excluded&lt;/div&gt;&lt;div style=&quot;text-align: center;&quot;&gt;n = 300&lt;/div&gt;&lt;div&gt;&lt;span style=&quot;background-color: initial;&quot;&gt;Reasons:&amp;nbsp;&lt;/span&gt;&lt;/div&gt;&lt;div&gt;&lt;ul&gt;&lt;li style=&quot;&quot;&gt;Outside the study area&lt;/li&gt;&lt;li style=&quot;&quot;&gt;Not&amp;nbsp; accessible&amp;nbsp;&lt;/li&gt;&lt;li style=&quot;&quot;&gt;Literature review&lt;/li&gt;&lt;li style=&quot;&quot;&gt;Book introduction&lt;/li&gt;&lt;li style=&quot;&quot;&gt;Key words mentioned but not part of the analyzed data&lt;/li&gt;&lt;/ul&gt;&lt;/div&gt;" style="rounded=0;whiteSpace=wrap;html=1;align=left;" vertex="1" parent="1">
          <mxGeometry x="590" y="600" width="210" height="170" as="geometry" />
        </mxCell>
        <mxCell id="x97kpMAY2D_KdvPp3oIe-18" style="edgeStyle=orthogonalEdgeStyle;rounded=0;orthogonalLoop=1;jettySize=auto;html=1;exitX=0.5;exitY=1;exitDx=0;exitDy=0;" edge="1" parent="1" source="x97kpMAY2D_KdvPp3oIe-19" target="x97kpMAY2D_KdvPp3oIe-21">
          <mxGeometry relative="1" as="geometry" />
        </mxCell>
        <mxCell id="x97kpMAY2D_KdvPp3oIe-19" value="&lt;div&gt;Full text article accessed for eligibility&lt;/div&gt;&lt;div&gt;n = 300&lt;/div&gt;" style="rounded=0;whiteSpace=wrap;html=1;" vertex="1" parent="1">
          <mxGeometry x="300" y="670" width="220" height="50" as="geometry" />
        </mxCell>
        <mxCell id="x97kpMAY2D_KdvPp3oIe-20" value="" style="endArrow=classic;html=1;rounded=0;" edge="1" parent="1">
          <mxGeometry width="50" height="50" relative="1" as="geometry">
            <mxPoint x="410" y="640" as="sourcePoint" />
            <mxPoint x="590" y="640" as="targetPoint" />
          </mxGeometry>
        </mxCell>
        <mxCell id="x97kpMAY2D_KdvPp3oIe-21" value="&lt;div&gt;Studies related to keywords&lt;/div&gt;&lt;div&gt;n = 300&lt;/div&gt;" style="rounded=0;whiteSpace=wrap;html=1;" vertex="1" parent="1">
          <mxGeometry x="300" y="785" width="220" height="50" as="geometry" />
        </mxCell>
        <mxCell id="x97kpMAY2D_KdvPp3oIe-22" value="&lt;div&gt;Articles excluded due to not meeting research guidelines&lt;/div&gt;&lt;div&gt;n = 300&lt;/div&gt;" style="rounded=0;whiteSpace=wrap;html=1;" vertex="1" parent="1">
          <mxGeometry x="130" y="875" width="220" height="50" as="geometry" />
        </mxCell>
        <mxCell id="x97kpMAY2D_KdvPp3oIe-23" value="&lt;div&gt;New studies meeting the research guidelines&lt;/div&gt;&lt;div&gt;n = 300&lt;/div&gt;" style="rounded=0;whiteSpace=wrap;html=1;" vertex="1" parent="1">
          <mxGeometry x="410" y="875" width="220" height="50" as="geometry" />
        </mxCell>
        <mxCell id="x97kpMAY2D_KdvPp3oIe-24" value="" style="strokeWidth=1;html=1;shape=mxgraph.flowchart.annotation_2;align=left;labelPosition=right;pointerEvents=1;rotation=90;" vertex="1" parent="1">
          <mxGeometry x="385" y="720" width="40" height="270" as="geometry" />
        </mxCell>
        <mxCell id="x97kpMAY2D_KdvPp3oIe-25" value="&lt;div&gt;Adapted from Mack et al 2022&lt;/div&gt;" style="rounded=0;whiteSpace=wrap;html=1;" vertex="1" parent="1">
          <mxGeometry x="280" y="980" width="220" height="50" as="geometry" />
        </mxCell>
        <mxCell id="x97kpMAY2D_KdvPp3oIe-27" style="edgeStyle=orthogonalEdgeStyle;rounded=0;orthogonalLoop=1;jettySize=auto;html=1;exitX=0.5;exitY=1;exitDx=0;exitDy=0;entryX=0.552;entryY=-0.041;entryDx=0;entryDy=0;entryPerimeter=0;" edge="1" parent="1" source="x97kpMAY2D_KdvPp3oIe-2" target="x97kpMAY2D_KdvPp3oIe-6">
          <mxGeometry relative="1" as="geometry" />
        </mxCell>
      </root>
    </mxGraphModel>
  </diagram>
</mxfile>
